<svg id="visual" viewBox="0 0 900 600" width="900" height="600" xmlns="http://www.w3.org/2000/svg" xmlns:xlink="http://www.w3.org/1999/xlink" version="1.1"><path d="M0 431L21.5 435.5C43 440 86 449 128.8 452.8C171.7 456.7 214.3 455.3 257.2 451.7C300 448 343 442 385.8 436.2C428.7 430.3 471.3 424.7 514.2 431.7C557 438.7 600 458.3 642.8 459C685.7 459.7 728.3 441.3 771.2 428.7C814 416 857 409 878.5 405.5L900 402L900 601L878.5 601C857 601 814 601 771.2 601C728.3 601 685.7 601 642.8 601C600 601 557 601 514.2 601C471.3 601 428.7 601 385.8 601C343 601 300 601 257.2 601C214.3 601 171.7 601 128.8 601C86 601 43 601 21.5 601L0 601Z" fill="#6a6a6a"></path><path d="M0 448L21.5 455.2C43 462.3 86 476.7 128.8 476C171.7 475.3 214.3 459.7 257.2 457.8C300 456 343 468 385.8 470.2C428.7 472.3 471.3 464.7 514.2 461.3C557 458 600 459 642.8 460.2C685.7 461.3 728.3 462.7 771.2 468.7C814 474.7 857 485.3 878.5 490.7L900 496L900 601L878.5 601C857 601 814 601 771.2 601C728.3 601 685.7 601 642.8 601C600 601 557 601 514.2 601C471.3 601 428.7 601 385.8 601C343 601 300 601 257.2 601C214.3 601 171.7 601 128.8 601C86 601 43 601 21.5 601L0 601Z" fill="#4f4f4f"></path><path d="M0 511L21.5 513.8C43 516.7 86 522.3 128.8 517.2C171.7 512 214.3 496 257.2 486.7C300 477.3 343 474.7 385.8 475.8C428.7 477 471.3 482 514.2 490C557 498 600 509 642.8 512C685.7 515 728.3 510 771.2 506.5C814 503 857 501 878.5 500L900 499L900 601L878.5 601C857 601 814 601 771.2 601C728.3 601 685.7 601 642.8 601C600 601 557 601 514.2 601C471.3 601 428.7 601 385.8 601C343 601 300 601 257.2 601C214.3 601 171.7 601 128.8 601C86 601 43 601 21.5 601L0 601Z" fill="#363636"></path><path d="M0 544L21.5 541.5C43 539 86 534 128.8 530.3C171.7 526.7 214.3 524.3 257.2 522.5C300 520.7 343 519.3 385.8 520.3C428.7 521.3 471.3 524.7 514.2 524C557 523.3 600 518.7 642.8 520.2C685.7 521.7 728.3 529.3 771.2 532C814 534.7 857 532.3 878.5 531.2L900 530L900 601L878.5 601C857 601 814 601 771.2 601C728.3 601 685.7 601 642.8 601C600 601 557 601 514.2 601C471.3 601 428.7 601 385.8 601C343 601 300 601 257.2 601C214.3 601 171.7 601 128.8 601C86 601 43 601 21.5 601L0 601Z" fill="#1e1e1e"></path><path d="M0 551L21.5 553C43 555 86 559 128.8 563C171.7 567 214.3 571 257.2 567.2C300 563.3 343 551.7 385.8 548.8C428.7 546 471.3 552 514.2 552.7C557 553.3 600 548.7 642.8 549C685.7 549.3 728.3 554.7 771.2 556C814 557.3 857 554.7 878.5 553.3L900 552L900 601L878.5 601C857 601 814 601 771.2 601C728.3 601 685.7 601 642.8 601C600 601 557 601 514.2 601C471.3 601 428.7 601 385.8 601C343 601 300 601 257.2 601C214.3 601 171.7 601 128.8 601C86 601 43 601 21.5 601L0 601Z" fill="#000000"></path></svg>